<svg xmlns="http://www.w3.org/2000/svg" width="38px" height="40px" viewBox="0 0 38 40" fill="none" version="1.1">
<g style="mix-blend-mode:overlay">
<path style="fill-rule:nonzero;fill:rgb(100%,77.254902%,78.431373%);fill-opacity:1;stroke-width:3;stroke-linecap:butt;stroke-linejoin:miter;stroke:rgb(100%,92.941176%,93.333333%);stroke-opacity:1;stroke-miterlimit:4;" d="M 23.74915 3.010155 C 20.809186 1.312891 17.19077 1.312891 14.250806 3.010155 L 6.661177 7.392962 C 3.721213 9.090225 1.912005 12.22694 1.912005 15.617171 L 1.912005 24.382785 C 1.912005 27.777312 3.721213 30.909731 6.661177 32.606994 L 14.250806 36.989801 C 17.19077 38.687065 20.809186 38.687065 23.74915 36.989801 L 31.338779 32.606994 C 34.278743 30.909731 36.087951 27.777312 36.087951 24.382785 L 36.087951 15.617171 C 36.087951 12.22694 34.278743 9.090225 31.338779 7.392962 Z M 23.74915 3.010155 " transform="matrix(0.863637,0,0,0.909092,2.590908,1.81818)"/>
<path style="fill-rule:nonzero;fill:rgb(100%,100%,100%);fill-opacity:1;stroke-width:1;stroke-linecap:butt;stroke-linejoin:miter;stroke:rgb(100%,100%,100%);stroke-opacity:1;stroke-miterlimit:4;" d="M 843.266936 870.154271 C 834.861553 729.650237 739.004413 612.761754 609.3469 573.006078 C 687.856759 536.308531 742.402334 456.457387 742.402334 364.033936 C 742.402334 236.781794 639.212837 133.654891 512.059056 133.654891 C 384.726437 133.654891 281.536941 236.781794 281.536941 364.033936 C 281.536941 456.457387 336.082515 536.308531 414.771212 573.006078 C 285.1137 612.761754 189.25656 729.650237 180.851176 870.154271 C 180.135824 881.027618 188.720046 890.371901 199.807999 890.371901 C 209.644086 890.371901 218.049469 882.556683 218.764821 872.532816 C 227.706719 718.437098 355.575852 596.451733 512.059056 596.451733 C 668.363423 596.451733 796.232556 718.437098 805.353291 872.532816 C 805.889805 882.556683 814.295189 890.371901 824.310114 890.371901 C 835.398067 890.371901 843.982288 881.027618 843.266936 870.154271 Z M 319.450586 364.033936 C 319.450586 257.848904 405.650477 171.54171 512.059056 171.54171 C 618.288797 171.54171 704.488689 257.848904 704.488689 364.033936 C 704.488689 470.388864 618.288797 556.526161 512.059056 556.526161 C 405.650477 556.526161 319.450586 470.388864 319.450586 364.033936 Z M 319.450586 364.033936 " transform="matrix(0.0218424,0,0,0.022992,7.815401,8.227788)"/>
</g>
</svg>
